# xmcd
#
# Track frame offsets: 
#        300
#        13944
#        30530
#        42748
#        60887
#        74819
#        93857
#        111649
#        134897
#        159146
#        176993
#        195232
#        207638
#
# Disc length: 3106 seconds
#
# Revision: 1
# Processed by: cddbd v1.5.2PL0 Copyright (c) Steve Scherf et al.
# Submitted via: ExactAudioCopy v0.99pb5
#
DISCID=c60c1e0d
DTITLE=Janiva Magness - Use What You Got
DYEAR=2003
DGENRE=Blues
TTITLE0=I'm Lost Without You
TTITLE1=Use What You Got
TTITLE2=I'm Not Ashamed
TTITLE3=Find A Fool
TTITLE4=How Much Longer (Is That Train Gonna Blow)
TTITLE5=Stormy Blues
TTITLE6=You Better Love Me
TTITLE7=All Night Worker
TTITLE8=That's Why I'm Cryin'
TTITLE9=Who's Gonna Help A Brother Get Further
TTITLE10=Who Will The Next Fool Be
TTITLE11=Matchbox
TTITLE12=Don't Start Crying Now
EXTD=on Blues Leaf Records label
EXTT0=
EXTT1=
EXTT2=
EXTT3=
EXTT4=
EXTT5=
EXTT6=
EXTT7=
EXTT8=
EXTT9=
EXTT10=
EXTT11=
EXTT12=
PLAYORDER=
